{"accessors" : [{"bufferView" : 0, "byteOffset" : 0, "componentType" : 5123, "count" : 372, "type" : "SCALAR", "max" : [294], "min" : [0]}, {"bufferView" : 1, "byteOffset" : 0, "componentType" : 5126, "count" : 295, "type" : "VEC3", "max" : [1.3584787845611572, 1.358860731124878, 2.2477734088897705], "min" : [-1.3582265377044678, -1.3777061700820923, -0.47580277919769287], "name" : "POSITION"}], "asset" : {"generator" : "Aspose.3D 22.10", "version" : "2.0"}, "buffers" : [{"uri" : "data:application/octet-stream;base64,", "byteLength" : 5216}], "bufferViews" : [{"buffer" : 0, "byteOffset" : 0, "byteLength" : 744, "target" : 34963}, {"buffer" : 0, "byteOffset" : 748, "byteLength" : 4464, "byteStride" : 12, "target" : 34962}], "meshes" : [{"primitives" : [{"attributes" : {"POSITION" : 1}, "indices" : 0, "mode" : 4}], "name" : "Cylinder"}], "nodes" : [{"mesh" : 0, "name" : "Cylinder"}], "scene" : 0, "scenes" : [{"nodes" : [0]}]}